REM DIRINDEX 1\2,1\3,1\4,1\5
REM DIRNAME folder01,folder02,folder03,folder04,folder05
TITLE ""
FILE "1Q_t_1307-1316.mp3" MP3
  TRACK 01 AUDIO
    TITLE "3:cjc004_4826"
    INDEX 01 00:00:00
  TRACK 02 AUDIO
    TITLE "0:"
    INDEX 01 00:00:68
  TRACK 03 AUDIO
    TITLE "4:cjc004_4827"
    INDEX 01 00:01:24
  TRACK 04 AUDIO
    TITLE "0:"
    INDEX 01 00:02:49
  TRACK 05 AUDIO
    TITLE "5:cjc004_4828"
    INDEX 01 00:02:73
  TRACK 06 AUDIO
    TITLE "0:"
    INDEX 01 00:07:60
  TRACK 07 AUDIO
    TITLE "3:cjc004_4829"
    INDEX 01 00:08:36
  TRACK 08 AUDIO
    TITLE "0:"
    INDEX 01 00:09:40
  TRACK 09 AUDIO
    TITLE "4:cjc004_4830"
    INDEX 01 00:10:00
  TRACK 10 AUDIO
    TITLE "0:"
    INDEX 01 00:11:15
  TRACK 11 AUDIO
    TITLE "5:cjc004_4831"
    INDEX 01 00:11:37
  TRACK 12 AUDIO
    TITLE "0:"
    INDEX 01 00:15:60
  TRACK 13 AUDIO
    TITLE "3:cjc004_4832"
    INDEX 01 00:16:36
  TRACK 14 AUDIO
    TITLE "0:"
    INDEX 01 00:17:37
  TRACK 15 AUDIO
    TITLE "4:cjc004_4833"
    INDEX 01 00:17:63
  TRACK 16 AUDIO
    TITLE "0:"
    INDEX 01 00:19:20
  TRACK 17 AUDIO
    TITLE "5:cjc004_4834"
    INDEX 01 00:19:42
  TRACK 18 AUDIO
    TITLE "0:"
    INDEX 01 00:24:06
  TRACK 19 AUDIO
    TITLE "3:cjc004_4835"
    INDEX 01 00:24:57
  TRACK 20 AUDIO
    TITLE "0:"
    INDEX 01 00:25:70
  TRACK 21 AUDIO
    TITLE "4:cjc004_4836"
    INDEX 01 00:26:24
  TRACK 22 AUDIO
    TITLE "0:"
    INDEX 01 00:27:45
  TRACK 23 AUDIO
    TITLE "5:cjc004_4837"
    INDEX 01 00:27:71
  TRACK 24 AUDIO
    TITLE "0:"
    INDEX 01 00:32:70
  TRACK 25 AUDIO
    TITLE "3:cjc004_4838"
    INDEX 01 00:33:50
  TRACK 26 AUDIO
    TITLE "0:"
    INDEX 01 00:35:10
  TRACK 27 AUDIO
    TITLE "4:cjc004_4839"
    INDEX 01 00:35:33
  TRACK 28 AUDIO
    TITLE "0:"
    INDEX 01 00:37:28
  TRACK 29 AUDIO
    TITLE "5:cjc004_4840"
    INDEX 01 00:37:50
  TRACK 30 AUDIO
    TITLE "0:"
    INDEX 01 00:42:61
  TRACK 31 AUDIO
    TITLE "3:cjc004_4841"
    INDEX 01 00:43:42
  TRACK 32 AUDIO
    TITLE "0:"
    INDEX 01 00:44:60
  TRACK 33 AUDIO
    TITLE "4:cjc004_4842"
    INDEX 01 00:45:10
  TRACK 34 AUDIO
    TITLE "0:"
    INDEX 01 00:46:23
  TRACK 35 AUDIO
    TITLE "5:cjc004_4843"
    INDEX 01 00:46:47
  TRACK 36 AUDIO
    TITLE "0:"
    INDEX 01 00:50:62
  TRACK 37 AUDIO
    TITLE "3:cjc004_4844"
    INDEX 01 00:51:34
  TRACK 38 AUDIO
    TITLE "0:"
    INDEX 01 00:52:43
  TRACK 39 AUDIO
    TITLE "4:cjc004_4845"
    INDEX 01 00:52:71
  TRACK 40 AUDIO
    TITLE "0:"
    INDEX 01 00:54:36
  TRACK 41 AUDIO
    TITLE "5:cjc004_4846"
    INDEX 01 00:54:64
  TRACK 42 AUDIO
    TITLE "0:"
    INDEX 01 00:58:73
  TRACK 43 AUDIO
    TITLE "3:cjc004_4847"
    INDEX 01 00:59:51
  TRACK 44 AUDIO
    TITLE "0:"
    INDEX 01 01:00:64
  TRACK 45 AUDIO
    TITLE "4:cjc004_4848"
    INDEX 01 01:01:15
  TRACK 46 AUDIO
    TITLE "0:"
    INDEX 01 01:02:22
  TRACK 47 AUDIO
    TITLE "5:cjc004_4849"
    INDEX 01 01:02:46
  TRACK 48 AUDIO
    TITLE "0:"
    INDEX 01 01:07:37
  TRACK 49 AUDIO
    TITLE "3:cjc004_4850"
    INDEX 01 01:08:13
  TRACK 50 AUDIO
    TITLE "0:"
    INDEX 01 01:09:46
  TRACK 51 AUDIO
    TITLE "4:cjc004_4851"
    INDEX 01 01:09:73
  TRACK 52 AUDIO
    TITLE "0:"
    INDEX 01 01:11:62
  TRACK 53 AUDIO
    TITLE "5:cjc004_4852"
    INDEX 01 01:12:03
  TRACK 54 AUDIO
    TITLE "0:"
    INDEX 01 01:17:63
  TRACK 55 AUDIO
    TITLE "3:cjc004_4853"
    INDEX 01 01:18:37
  TRACK 56 AUDIO
    TITLE "0:"
    INDEX 01 01:19:56
  TRACK 57 AUDIO
    TITLE "4:cjc004_4854"
    INDEX 01 01:20:10
  TRACK 58 AUDIO
    TITLE "0:"
    INDEX 01 01:21:29
  TRACK 59 AUDIO
    TITLE "5:cjc004_4855"
    INDEX 01 01:21:51
  TRACK 60 AUDIO
    TITLE "0:"
    INDEX 01 01:26:42
